<?xml version="1.0" encoding="utf-8"?>
<!-- Generator: Adobe Illustrator 23.0.2, SVG Export Plug-In . SVG Version: 6.00 Build 0)  -->
<svg version="1.1" xmlns="http://www.w3.org/2000/svg" xmlns:xlink="http://www.w3.org/1999/xlink" x="0px" y="0px"
	 viewBox="0 0 1080 1080" style="enable-background:new 0 0 1080 1080;" xml:space="preserve">
<style type="text/css">
	.st0{fill:url(#SVGID_1_);}
	.st1{fill:url(#SVGID_2_);}
</style>
<g id="Layer_1">
	<g>
		<linearGradient id="SVGID_1_" gradientUnits="userSpaceOnUse" x1="164" y1="444" x2="844" y2="444">
			<stop  offset="0.24" style="stop-color:#fff"/>
			<stop  offset="1" style="stop-color:#ffff"/>
		</linearGradient>
		<path class="st0" d="M504,104c-187.8,0-340,152.2-340,340s152.2,340,340,340s340-152.2,340-340S691.8,104,504,104z M504,760
			c-174.5,0-316-141.5-316-316s141.5-316,316-316s316,141.5,316,316S678.5,760,504,760z"/>
	</g>
</g>

<!-- #1A1E61 and #1C2385 -->
<g id="Layer_2">
	<g>
		<linearGradient id="SVGID_2_" gradientUnits="userSpaceOnUse" x1="321" y1="464.5" x2="687" y2="464.5">
			<stop  offset="0.24" style="stop-color:#ffff"/>
			<stop  offset="1" style="stop-color:#fff"/>
		</linearGradient>
		<path class="st1" d="M655.7,213H467v285h-72V213h-74v327.5c0,17.4,14.1,31.5,31.5,31.5H467v144h74V572h114.6
			c17.3,0,31.4-14,31.4-31.4V244.3C687,227,673,213,655.7,213z M613,498h-72V287h72V498z"/>
	</g>
</g>
</svg>
